<svg width="338" height="212" viewBox="0 0 338 212" fill="none" xmlns="http://www.w3.org/2000/svg">
<g clip-path="url(#clip0_2_81)">
<path d="M159 2.00001C159.333 2.66667 159.667 3.33334 160 4.00001C159.533 4.40001 159.033 4.80001 158.5 5.20001C157.833 5.73334 157.2 6.30001 156.6 6.90001C155.6 7.70001 155.6 7.70001 154.6 8.50001C152.9 9.90001 152.9 9.90001 152 12C155.4 12 158.833 11.9667 162.3 11.9C163.233 11.9 164.2 11.9 165.2 11.9C167.9 11.8 170.4 11.7 173 11C175.7 8.30001 175.7 8.30001 177 5.00001C178.7 2.60001 178.7 2.60001 181 1.00001C183.8 0.700008 186.2 0.800008 189 1.00001C190 3.00001 190 3.00001 191 5.00001C190.067 5.60001 189.1 6.23334 188.1 6.90001C185 8.70001 185 8.70001 184 11C183.333 11 182.667 11 182 11C182 11.6667 182 12.3333 182 13C183.2 12.9333 184.4 12.9 185.6 12.9C190 12.8 193.9 13.6 198.1 14.5C201.7 15.2 201.7 15.2 205 15C207.4 13.2 208.8 11.4 210.5 8.90001C212 7.00001 212 7.00001 215.8 6.30001C219 7.00001 219 7.00001 221 10C220.533 10.4 220.033 10.8 219.5 11.2C218.833 11.7333 218.2 12.3 217.6 12.9C216.933 13.4333 216.267 13.9667 215.6 14.5C213.9 15.9 213.9 15.9 213 18C214.133 18.1333 215.267 18.2333 216.4 18.3C220.7 18.8 224.5 20 228.6 21.5C231.4 22.1 233.2 21.9 236 21C238.2 18.6 238.2 18.6 240 16C242.7 14.6 245 14.9 248 15C249 17 249 17 250 19C246.5 22 246.5 22 243 25C245.5 26.6 247.5 27.7 250.2 28.8C269 36.6 286.2 45.7 303 57C304.133 57.8 305.3 58.5667 306.5 59.3C307.3 59.8333 308.133 60.4 309 61C308.333 61.3333 307.667 61.6667 307 62C305 61.3 305 61.3 302.6 60.1C301.667 59.7 300.733 59.2667 299.8 58.8C298.733 58.3333 297.667 57.8333 296.6 57.3C285.7 52.3 274.5 48.3 263.1 44.5C262.3 44.2333 261.5 43.9667 260.7 43.7C252.5 41 244.3 38.5 236 36C236 44.6 236 53.2 236 62C232.1 60 231.1 59.3 229.5 55.3C227.9 48.4 228.7 40.9 230 34C229.267 33.8667 228.533 33.7333 227.8 33.6C220.533 32.4 213.267 31.2 206 30C206 37.9 206 45.8 206 54C200.1 48.1 200.1 48.1 199.9 44C199.9 43.2667 199.9 42.5333 199.9 41.8C199.9 41 199.9 40.1667 199.9 39.3C199.9 38.5 199.9 37.6667 199.9 36.8C199.9 36 199.933 35.1667 200 34.3C200 32.1667 200 30.0667 200 28C199.4 28 198.767 28 198.1 28C190.3 28.1 182.7 27.6 175 27C175 35.9 175 44.8 175 54C170.3 51.7 169.7 50.8 168 46C167.7 42.7 167.7 39.4 167.8 36.1C167.9 33.1 167.9 30.1 168 27C160.7 27.3 153.5 27.7 146 28C146.5 38.4 146.5 38.4 147 49C143 47 143 47 141.3 44.1C140 40 140 40 140 29C131.8 30.7 123.5 32.3 115 34C115.2 37.3 115.2 37.3 115.4 40.6C115.533 41.8667 115.633 43.1333 115.7 44.4C116 47.6 116.4 50.8 117 54C114.1 53 113 52 111.3 49.5C110.1 46.2 109.9 44.2 109.9 40.8C109.9 39.4 109.9 39.4 110 38.1C110 37.3667 110 36.6667 110 36C81.4 42.7 53.6 51.5 29.4 68.6C28.6 69.0667 27.8 69.5333 27 70C26.3333 69.6667 25.6667 69.3333 25 69C46.9 48.2 74.3 29.9 103.6 21.9C109.5 20.4 109.5 20.4 114.1 16.6C115.3 14.1 116.2 11.6 117 9.00001C118.9 6.40001 118.9 6.40001 121 5.00001C124.1 4.70001 126.2 4.60001 129 6.00001C127.3 9.90001 124.7 12.8 122 16C125.4 15.7 128.8 15.4 132.3 15C133.233 14.9333 134.2 14.8667 135.2 14.8C140.5 14.3 140.5 14.3 144.5 11.2C145.6 9.10001 145.6 9.10001 146.3 6.90001C148.6 0.700008 153.3 0.500008 159 2.00001Z" fill="#F7F7F7"/>
<path d="M27 154C31.3 155.6 35.2 157.8 39.1 160.1C75.5 180.7 118.5 194 160.5 194.2C161.367 194.2 162.267 194.2 163.2 194.2C166 194.2 168.8 194.2 171.6 194.2C173.1 194.3 173.1 194.3 174.5 194.3C189.3 194.2 203.5 193.6 218 191C218.933 190.867 219.867 190.7 220.8 190.5C231.7 188.7 242.4 186.3 253 183C253.933 182.733 254.9 182.467 255.9 182.2C272 177.6 287.9 171.1 302.6 163.1C303.4 162.7 304.2 162.333 305 162C305.667 162.333 306.333 162.667 307 163C279.8 181.7 250.8 195.5 218.8 204C215.1 204.9 215.1 204.9 212.2 206C207.6 207.4 203.1 208 198.4 208.6C196.9 208.8 196.9 208.8 195.4 209C192.6 209.333 189.8 209.667 187 210C185.3 210.2 185.3 210.2 183.7 210.4C160.1 212.8 136.8 210.1 114 204C113.333 203.8 112.633 203.633 111.9 203.5C100.4 200.5 89.7 196.2 79 191C77.9 190.5 77.9 190.5 76.8 189.9C62.5 182.9 49.6 174.1 37.2 164.1C36.5333 163.567 35.8333 163 35.1 162.4C32 159.8 29.2 157.4 27 154Z" fill="#F7F7F7"/>
<path d="M116.3 96.8C118.367 96.7333 120.4 96.7 122.4 96.7C123.733 96.7 125.033 96.7 126.3 96.7C128.1 96.7 128.1 96.7 129.9 96.6C133.3 97 134.6 97.6 137 100C138.4 107.7 134.2 118.1 131 125C124.8 130.8 119.3 130.2 111.3 130.2C109.167 130.267 107.033 130.3 104.9 130.3C103.567 130.3 102.233 130.3 100.9 130.3C99.7 130.3 98.4667 130.333 97.2 130.4C93.8 130 92.4 129.3 90 127C90.6 121.4 92 116.2 93.8 110.8C94.1 109.6 94.1 109.6 94.5 108.4C96.1 103.5 97.5 100.8 102 98C106.2 95.9 111.7 96.8 116.3 96.8Z" fill="#F1F1F1"/>
<path d="M69.3 96.7C71.3 96.7 73.3 96.6667 75.3 96.6C76.6333 96.6 77.9333 96.6 79.2 96.6C81 96.6 81 96.6 82.8 96.5C86.6 97.1 88.3 98.4 91 101C90 104.667 89 108.333 88 112C87.6667 113.133 87.3667 114.3 87.1 115.5C86.6 117.2 86.6 117.2 86.1 118.9C85.7 120.5 85.7 120.5 85.3 122.2C83.5 126.1 80.8 128.1 77 130C72.7 130.2 68.5 130.2 64.2 130.2C62.0667 130.2 59.9333 130.2 57.8 130.2C56.4667 130.2 55.1333 130.2 53.8 130.2C51.9 130.2 51.9 130.2 50.1 130.2C47 130 47 130 44 128C43.4 121.7 44.7 116.6 46.7 110.8C46.9667 110 47.2 109.2 47.4 108.4C51.2 97 58.4 96.8 69.3 96.7Z" fill="#F1F1F1"/>
<path d="M188 97C192.2 96.9333 196.4 96.8667 200.6 96.8C202 96.8 203.433 96.8 204.9 96.8C206.967 96.7333 209 96.7 211 96.7C212.9 96.7 212.9 96.7 214.8 96.7C218.2 97 219.5 97.7 222 100C221.4 104.2 220.4 108 219 112C218.333 112 217.667 112 217 112C217.3 113 217.3 113 217.7 114C218.1 118.1 216.9 121.3 215 125C212.9 127.5 211 128.8 208 130C204.8 130.2 204.8 130.2 201 130.2C200.4 130.2 199.733 130.2 199 130.2C196.933 130.2 194.867 130.167 192.8 130.1C191.333 130.1 189.9 130.1 188.5 130.1C184.967 130.1 181.467 130.067 178 130C179.1 123.8 180.5 117.8 182.4 111.8C182.7 110.8 182.7 110.8 183.1 109.8C184.4 105.4 186.1 101.2 188 97Z" fill="#F2F2F2"/>
<path d="M249.9 95.8C253.7 96.1 256.7 97.6 259.6 100.1C262.7 104.3 263.3 109.7 264.4 114.6C264.8 116.3 264.8 116.3 265.2 118.1C267 126.4 267 126.4 267 130C263.4 130 259.7 130 256 130C255.333 127.533 254.7 125.033 254.1 122.5C253.8 121.5 253.8 121.5 253.5 120.4C252.3 115.6 251.5 110.9 251 106C247.4 107.2 246.6 108.5 244.3 111.6C243.7 112.4 243.067 113.233 242.4 114.1C241.933 114.7 241.467 115.333 241 116C244.3 116.3 247.6 116.7 251 117C251.5 121 251.5 121 252 125C250 125 250 125 248 125.1C246.267 125.167 244.5 125.233 242.7 125.3C241.833 125.3 240.967 125.3 240.1 125.3C234.9 125.4 234.9 125.4 230.7 128C229.9 129 229.9 129 229 130C226.4 130.4 226.4 130.4 223.7 130.3C222.833 130.233 221.933 130.167 221 130.1C220.333 130.1 219.667 130.067 219 130C221 125.4 224.2 121.7 227.3 117.9C230 114.6 232.6 111.2 235 107.7C243.4 96 243.4 96 249.9 95.8Z" fill="#F2F2F2"/>
<path d="M21.8 96.9C22.8 96.9 22.8 96.9 23.8 96.9C25.8667 96.9 27.9667 96.9 30.1 96.9C31.5667 96.9 33 96.9333 34.4 97C37.9333 97 41.4667 97 45 97C44.3 100 43.7 102.9 43 106C34.4 106.3 25.8 106.7 17 107C14.7 114.6 12.4 122.2 10 130C6.7 130 3.4 130 0 130C1.5 122.9 3.2 115.9 5.4 108.9C5.73333 107.7 6.1 106.467 6.5 105.2C9.8 98.1 14.5 96.9 21.8 96.9Z" fill="#EFEFEF"/>
<path d="M145 97C156.9 97 168.8 97 181 97C180.3 99.6 179.7 102.3 179 105C172.6 105.5 172.6 105.5 166 106C165.6 107.467 165.167 108.967 164.7 110.5C164.167 112.433 163.633 114.4 163.1 116.4C162.767 117.333 162.467 118.333 162.2 119.4C161.933 120.333 161.667 121.267 161.4 122.2C161.133 123.067 160.9 123.933 160.7 124.8C160 127 160 127 159 129C155.7 129 152.4 129 149 129C150.3 120.4 152.7 113 156 105C152 105 148.1 105 144 105C144.3 102.4 144.7 99.7 145 97Z" fill="#F3F3F3"/>
<path d="M100 50C101.3 54.2 102.1 57.7 102 62C100.933 62.2 99.8333 62.4333 98.7 62.7C82.3 66.2 66.7 71.6 50.9 77C45.6333 78.8 40.3333 80.4667 35 82C37.9 79 41.1 77 44.6 74.9C45.2667 74.5 45.9333 74.1 46.6 73.7C48.7333 72.4333 50.8667 71.2 53 70C53.6667 69.6 54.3333 69.2333 55 68.9C87.9 50 87.9 50 100 50Z" fill="#F7F7F7"/>
<path d="M316 140C299.5 150.3 282.4 159.5 264.3 166.8C263.233 167.2 262.167 167.633 261.1 168.1C253.5 171 253.5 171 249 171C247.2 167.1 246.9 164.2 247 160C248.133 159.8 249.267 159.567 250.4 159.3C262.2 156.7 273.6 153.3 285.1 149.5C285.767 149.3 286.467 149.067 287.2 148.8C295.2 146.1 303 143.3 310.6 139.8C313 139 313 139 316 140Z" fill="#F3F3F3"/>
<path d="M317 97C320.3 97 323.6 97 327 97C324.7 105.4 322.4 113.7 320 122C325.9 122 331.9 122 338 122C337.3 124.6 336.7 127.3 336 130C332.267 130.067 328.5 130.133 324.7 130.2C323.2 130.2 323.2 130.2 321.5 130.3C320.5 130.3 319.467 130.3 318.4 130.3C317.467 130.3 316.533 130.3 315.6 130.3C312.5 129.9 311.2 129.2 309 127C308.3 121.6 309.6 117.1 311.3 112C311.5 111.333 311.733 110.667 312 110C313.4 105.5 315.1 101.3 317 97Z" fill="#EFEFEF"/>
<path d="M281 97C284.6 97 288.3 97 292 97C290 105.4 287.6 113.7 285 122C290.6 122 296.2 122 302 122C301.7 124.6 301.3 127.3 301 130C297.267 130.067 293.5 130.133 289.7 130.2C288.2 130.2 288.2 130.2 286.5 130.3C285.5 130.3 284.467 130.3 283.4 130.3C282.467 130.3 281.533 130.3 280.6 130.3C277.5 129.9 276.1 129.2 274 127C274.1 120 276.1 113.6 278.1 106.9C278.367 105.967 278.633 105 278.9 104C279.567 101.667 280.267 99.3333 281 97Z" fill="#F1F1F1"/>
<path d="M106 106C112.6 106 119.2 106 126 106C125 112 125 112 122 122C115.1 122 108.1 122 101 122C103.8 110.5 103.8 110.5 106 106Z" fill="#003366"/>
<path d="M59 106C65.6 106 72.2 106 79 106C77.9 111.6 76.8 116.6 75 122C68.1 122 61.1 122 54 122C56.8 110.5 56.8 110.5 59 106Z" fill="#003366"/>
<path d="M195 105C200.3 105 205.6 105 211 105C210.667 106.667 210.333 108.333 210 110C205.4 110 200.8 110 196 110C195.667 112 195.333 114 195 116C199 116.3 202.9 116.7 207 117C206.667 118.667 206.333 120.333 206 122C200.7 122 195.4 122 190 122C191.5 116.3 193.1 110.6 195 105Z" fill="#003366"/>
<path d="M20 109.9C20.8667 109.9 21.7667 109.9 22.7 109.9C23.6333 109.9 24.6 109.9 25.6 109.9C26.5333 109.9 27.5333 109.9 28.6 109.9C29.6 109.9 30.6 109.933 31.6 110C34.0667 110 36.5333 110 39 110C38.1 115.7 38.1 115.7 37 118C30.1 118 23.1 118 16 118C17.1 110 17.1 110 20 109.9Z" fill="#EAEAEA"/>
<path d="M66 64C66 64.6667 66 65.3333 66 66C65.3333 66 64.6667 66 64 66C65.3 67.7 66.6 69.3 68 71C63.8 72.4667 59.6 73.9333 55.4 75.4C54.2667 75.8 53.1 76.2 51.9 76.6C46.3 78.6 40.7 80.5 35 82C37.8 78.8 41.4 76.8 45 74.7C45.6667 74.3 46.3333 73.9 47 73.5C63.1 64 63.1 64 66 64Z" fill="#F7F7F7"/>
<path d="M283 45C292.1 49.7 300.5 55.2 309 61C308.333 61.3333 307.667 61.6667 307 62C304.5 61.1 304.5 61.1 301.5 59.8C300.367 59.2667 299.233 58.7667 298.1 58.3C296.967 57.7667 295.8 57.2333 294.6 56.7C292.9 55.9 292.9 55.9 291.1 55.1C282.2 51.1 282.2 51.1 278 49C278.333 48.3333 278.667 47.6667 279 47C279.667 47 280.333 47 281 47C281 47.6667 281 48.3333 281 49C282 49 283 49 284 49C283.667 47.6667 283.333 46.3333 283 45Z" fill="#F7F7F7"/>
<path d="M248 106C249 106 250 106 251 106C251.533 107.933 252.067 109.867 252.6 111.8C252.867 112.8 253.133 113.867 253.4 115C254 117.8 254 119.3 253 122C252.333 121.333 251.667 120.667 251 120C251 119 251 118 251 117C247.4 117 243.7 117 240 117C245.1 109.2 245.1 109.2 248 106Z" fill="#003366"/>
<path d="M155.8 1.1C156.867 1.43333 157.933 1.73333 159 1.99999C159.333 2.66666 159.667 3.33333 160 3.99999C159.533 4.4 159.033 4.79999 158.5 5.2C157.833 5.73333 157.2 6.3 156.6 6.9C155.933 7.43333 155.267 7.96666 154.6 8.5C152.9 9.89999 152.9 9.9 152 12C156 12 159.9 12 164 12C164 12.3333 164 12.6667 164 13C159.4 13 154.8 13 150 13C149.333 11.3333 148.667 9.66666 148 8C147.667 8.66666 147.333 9.33333 147 10C146.333 10 145.667 10 145 10C146.8 4.2 149.4 0.899995 155.7 1.1H155.8Z" fill="#F7F7F7"/>
<path d="M19.2 106C20.2 106 21.1667 106.033 22.1 106.1C23.1667 106.167 24.2333 106.233 25.3 106.3C26.3667 106.367 27.4667 106.4 28.6 106.4C29.6667 106.467 30.7667 106.533 31.9 106.6C34.5667 106.733 37.2667 106.867 40 107C39.6667 108 39.3333 109 39 110C28.6 110.5 28.6 110.5 18 111C17.6667 112.667 17.3333 114.333 17 116C16 116 15 116 14 116C14.3333 114.533 14.6333 113.067 14.9 111.6C15.1 110.733 15.3 109.9 15.5 109.1C16.2 106.3 16.3 106 19.2 106Z" fill="#003366"/>
<path d="M50 49C50 52 50 52 48.5 53.7C48.0333 54.1 47.5333 54.5333 47 55C48 55.3333 49 55.6667 50 56C46.4 58.2 42.8 60.3667 39.2 62.5C38.2 63.1 37.1667 63.7333 36.1 64.4C35.1 65 34.1 65.6 33.1 66.2C32.2333 66.7333 31.3333 67.2667 30.4 67.8C28 69 28 69 25 69C32.8 61.6 41.2 55.3 50 49Z" fill="#F7F7F7"/>
<path d="M192 113C193 113.333 194 113.667 195 114C195 114.667 195 115.333 195 116C199 116.3 202.9 116.7 207 117C206.667 118.667 206.333 120.333 206 122C200.7 122 195.4 122 190 122C190.7 119 191.3 116.1 192 113Z" fill="#003366"/>
<path d="M138 28C139 28 140 28 141 28C141 30.6 141 33.3 141 36C141.667 35.6667 142.333 35.3333 143 35C143.4 32.6667 143.733 30.3333 144 28C144.667 28 145.333 28 146 28C146.3 34.9 146.7 41.9 147 49C143 47 142.1 46.2 140.5 42.2C139.5 37.9 139.8 33.4 140 29C139.333 28.6667 138.667 28.3333 138 28Z" fill="#F7F7F7"/>
<path d="M53 70C53.3333 71 53.6667 72 54 73C55.6667 73 57.3333 73 59 73C55 75.6 50.9 77 46.4 78.7C45.5333 79.0333 44.6667 79.3667 43.8 79.7C42.9333 80.0333 42.0667 80.3333 41.2 80.6C40.4667 80.9333 39.7 81.2333 38.9 81.5C37 82 37 82 35 81C40.9 77.4 46.9 73.7 53 70Z" fill="#F7F7F7"/>
<path d="M305 162C305.667 162.333 306.333 162.667 307 163C304.6 164.6 302.233 166.2 299.9 167.8C299.233 168.267 298.567 168.733 297.9 169.2C294 171.8 290.2 174 286 176C286 175.333 286 174.667 286 174C285.333 174 284.667 174 284 174C284 173.333 284 172.667 284 172C287.467 170.333 290.933 168.633 294.4 166.9C295.333 166.433 296.333 165.967 297.4 165.5C298.333 165.033 299.267 164.567 300.2 164.1C301.067 163.7 301.933 163.267 302.8 162.8C303.9 162.4 303.9 162.4 305 162Z" fill="#E4E4E4"/>
<path d="M114 34C114.333 34 114.667 34 115 34C115.067 34.9333 115.133 35.9 115.2 36.9C115.267 38.1 115.333 39.3333 115.4 40.6C115.533 41.8667 115.633 43.1333 115.7 44.4C116 47.6 116.4 50.8 117 54C114.1 53 113 52 111.2 49.5C109.6 44.9 109.7 40.8 110 36C108.3 36.3 108.3 36.3 106.6 36.6C105.4 36.7333 104.2 36.8667 103 37C102.333 36.3333 101.667 35.6667 101 35C104.3 35 107.6 35 111 35C111.7 39.3 112.3 43.6 113 48C113.3 43.4 113.7 38.8 114 34Z" fill="#F7F7F7"/>
<path d="M272 39C273.6 39.7333 275.233 40.4667 276.9 41.2C278.2 41.8 278.2 41.8 279.6 42.4C282.5 44.3 283.1 45.8 284 49C283 49 282 49 281 49C281 48.3333 281 47.6667 281 47C279.9 47.6 279.9 47.6 278.8 48.1C275.4 49.2 274.1 48.6 271 47C271 46.6667 271 46.3333 271 46C273 46 275 46 277 46C277 45 277 44 277 43C275.667 43 274.333 43 273 43C272.667 41.6667 272.333 40.3333 272 39Z" fill="#F7F7F7"/>
<path d="M100 50C101.4 54.3 102 57.4 102 62C95.1 63.5 95.1 63.5 88 65C90 62 90 62 92.4 61.5C93.2667 61.4333 94.1667 61.3667 95.1 61.3C96.0333 61.2333 96.9667 61.1667 97.9 61.1C98.9 61.1 98.9 61.1 100 61C100 58.7 100 56.4 100 54C97.7 54 95.4 54 93 54C95.2 50.8 96.1 50 100 50Z" fill="#F7F7F7"/>
<path d="M159 2C159.333 2.66667 159.667 3.33334 160 4C156.8 6.8 154.2 7.5 150 8C150 6 150 4 150 2C153.1 0.400004 155.7 1.3 159 2Z" fill="#F7F7F7"/>
<path d="M124 4.79999C127 4.99999 127 4.99999 129 5.99999C127.5 9.79999 125.2 11.6 122 14C121 9.09999 121 9.09999 121 7.99999C120.333 7.66665 119.667 7.33332 119 6.99999C121 4.99999 121 4.99999 124 4.79999Z" fill="#F7F7F7"/>
<path d="M227 33C228.333 33 229.667 33 231 33C231.9 40.2 232 46.8 231 54C230.333 53.6667 229.667 53.3333 229 53C229 50.9333 228.967 48.9 228.9 46.9C228.9 45.7667 228.9 44.6 228.9 43.4C229 40.2 229.4 37.2 230 34C229 33.6667 228 33.3333 227 33Z" fill="#F7F7F7"/>
<path d="M234 44C234.333 44 234.667 44 235 44C235.3 49.9 235.7 55.9 236 62C234.667 61.3333 233.333 60.6667 232 60C231.2 57.4 231.2 57.4 231 55C231.333 55 231.667 55 232 55C232.067 54.4 232.133 53.7667 232.2 53.1C232.267 52.3 232.333 51.4667 232.4 50.6C232.533 49.8 232.633 49 232.7 48.2C233 46 233 46 234 44Z" fill="#F7F7F7"/>
<path d="M281 97C284.6 97 288.3 97 292 97C291.333 98.3333 290.667 99.6667 290 101C287 100.7 284.1 100.3 281 100C281 99 281 98 281 97Z" fill="#CFCFCF"/>
<path d="M173 34C173.333 34 173.667 34 174 34C174.3 40.6 174.7 47.2 175 54C171 52 171 52 169.7 49.4C169.5 48.6 169.267 47.8 169 47C170 47.3333 171 47.6667 172 48C172.3 43.4 172.7 38.8 173 34Z" fill="#F7F7F7"/>
<path d="M204 30C204.667 30 205.333 30 206 30C206 37.9 206 45.8 206 54C205 53.3333 204 52.6667 203 52C202.8 49.8 202.8 49.8 202.9 47C203 45.5 203 45.5 203.1 44C203.167 43 203.233 41.9667 203.3 40.9C203.367 39.8333 203.433 38.7667 203.5 37.7C203.633 35.1667 203.8 32.6 204 30Z" fill="#F7F7F7"/>
<path d="M35 60C36.3333 60.6667 37.6667 61.3333 39 62C35 64.6 31.1 67.3 27 70C26.3333 69.6667 25.6667 69.3333 25 69C28.3 66 31.6 63.1 35 60Z" fill="#F7F7F7"/>
<path d="M316 140C314.2 141.2 312.4 142.367 310.6 143.5C309.6 144.167 308.6 144.833 307.6 145.5C305 147 305 147 303 147C303 145.667 303 144.333 303 143C304.6 142.333 306.2 141.633 307.8 140.9C308.667 140.567 309.567 140.2 310.5 139.8C313 139 313 139 316 140Z" fill="#C5C5C5"/>
<path d="M185.4 0.499996C186.6 0.633329 187.8 0.799996 189 0.999996C188.667 1.66666 188.333 2.33333 188 3C186.4 3.1 186.4 3.1 184.7 3.3C179.8 4.2 178.9 5.9 176 10C175.333 9.66666 174.667 9.33333 174 9C180.1 0.399996 180.1 0.399996 185.4 0.499996Z" fill="#F7F7F7"/>
<path d="M46 74C46.6667 75.3333 47.3333 76.6667 48 78C46.2 78.6667 44.4 79.3667 42.6 80.1C41.6 80.4333 40.6 80.8 39.6 81.2C37 82 37 82 35 81C38.6 78.7 42.3 76.4 46 74Z" fill="#F7F7F7"/>
<path d="M27 154C31.3 155.6 35.1 157.7 39 160C38 161 37 162 36 163C34.4667 161.667 32.9667 160.367 31.5 159.1C30.7 158.367 29.8667 157.6 29 156.8C28.3333 156.2 27.6667 155.6 27 155C27 154.667 27 154.333 27 154Z" fill="#D9D9D9"/>
<path d="M145 28C145.333 28 145.667 28 146 28C146.3 34.9 146.7 41.9 147 49C145.667 48.3333 144.333 47.6667 143 47C143.667 46.6667 144.333 46.3333 145 46C145 40.1 145 34.1 145 28Z" fill="#F7F7F7"/>
<path d="M297 54C301.7 55.6 305.1 58.1 309 61C308 61.5 308 61.5 307 62C304.4 61 304.4 61 301.4 59.6C300.4 59.1333 299.367 58.6333 298.3 58.1C297.567 57.7667 296.8 57.4 296 57C296.333 56 296.667 55 297 54Z" fill="#F7F7F7"/>
<path d="M93 26C92 29 92 29 89.7 30.8C86.6 32.2 85.3 32 82 31C85.3 28.3 88.6 26 93 26Z" fill="#F7F7F7"/>
<path d="M212 7.00001C215.5 6.60001 215.5 6.60001 219 7.00001C219.667 8.00001 220.333 9.00001 221 10C219 11 219 11 217 12C217 11 217 10 217 9.00001C214.7 9.30001 212.4 9.70001 210 10C210.667 9.00001 211.333 8.00001 212 7.00001Z" fill="#F7F7F7"/>
<path d="M60 68C60.3333 69 60.6667 70 61 71C60.6667 71.6667 60.3333 72.3333 60 73C57.4 73.6 54.7 73.7 52 74C54.2 70.5 56.1 69.3 60 68Z" fill="#F7F7F7"/>
<path d="M172 36C172.333 36 172.667 36 173 36C173 40.9 173 45.9 173 51C171.667 49.6667 170.333 48.3333 169 47C169 46 169 45 169 44C169.667 44 170.333 44 171 44C171.3 41.4 171.7 38.7 172 36Z" fill="#F7F7F7"/>
<path d="M110 36C110 38 110 40 110 42C109.667 42 109.333 42 109 42C109 40.3333 109 38.6667 109 37C108 37 107 37 106 37C106 37.6667 106 38.3333 106 39C102.7 40.1 101.3 39.8 98 39C102.1 36.9 105.3 35.9 110 36Z" fill="#F7F7F7"/>
<path d="M159 2C159.333 2.66667 159.667 3.33334 160 4C159 4.33334 158 4.66667 157 5C157 4.33334 157 3.66667 157 3C155 3.7 153 4.3 151 5C150.667 4 150.333 3 150 2C153.1 0.400004 155.7 1.3 159 2Z" fill="#F7F7F7"/>
<path d="M33 65C33.6667 65.3333 34.3333 65.6667 35 66C32.4 68 29.7 70 27 72C26 71.3333 25 70.6667 24 70C25.4667 69.1333 26.9333 68.2667 28.4 67.4C29.6 66.7 29.6 66.7 30.8 66C31.5333 65.6667 32.2667 65.3333 33 65Z" fill="#F7F7F7"/>
<path d="M118 8C119 8.33333 120 8.66667 121 9C119.6 11 119.6 11 118 13C117.333 13 116.667 13 116 13C116 13.6667 116 14.3333 116 15C115.333 14.6667 114.667 14.3333 114 14C115.3 12 116.6 10 118 8Z" fill="#F7F7F7"/>
<path d="M305 162C305.667 162.333 306.333 162.667 307 163C304.4 164.6 301.7 166.3 299 168C298.333 167.333 297.667 166.667 297 166C298.267 165.333 299.567 164.633 300.9 163.9C301.567 163.567 302.3 163.2 303.1 162.8C303.7 162.533 304.333 162.267 305 162Z" fill="#B8B8B8"/>
<path d="M207 118C207 119 207 120 207 121C203 120.7 199.1 120.3 195 120C195 119.667 195 119.333 195 119C196.6 118.8 198.233 118.633 199.9 118.5C200.767 118.433 201.667 118.333 202.6 118.2C205 118 205 118 207 118Z" fill="#003366"/>
<path d="M100 50C100 51.3333 100 52.6667 100 54C97.7 54 95.4 54 93 54C95.2 50.8 96.1 50 100 50Z" fill="#F7F7F7"/>
</g>
<defs>
<clipPath id="clip0_2_81">
<rect width="338" height="212" fill="white"/>
</clipPath>
</defs>
</svg>
